<svg width="103" height="97" viewBox="0 0 103 97" fill="none" xmlns="http://www.w3.org/2000/svg">
<circle cx="39.5" cy="57" r="37" stroke="white" stroke-width="5"/>
<path d="M34.5646 60.7484C33.5749 60.0481 32.3743 59.6278 31.072 59.6278C27.7235 59.6278 25 62.3513 25 65.6988C25 69.0462 27.7235 71.7697 31.072 71.7697C34.4206 71.7697 37.1441 69.0462 37.1441 65.6988C37.1441 64.4548 36.7654 63.2986 36.1209 62.3347L39.8698 58.6854L43.6201 62.336C42.9761 63.2997 42.5977 64.4553 42.5977 65.6988C42.5977 69.0462 45.3212 71.7697 48.6675 71.7697C52.0161 71.7697 54.7396 69.0462 54.7396 65.6988C54.7396 62.3513 52.0161 59.6278 48.6675 59.6278C47.3659 59.6278 46.1654 60.0486 45.1758 60.7492L41.4627 57.1349L45.1751 53.521C46.1648 54.222 47.3654 54.643 48.6675 54.643C52.0161 54.643 54.7396 51.9195 54.7396 48.571C54.7396 45.2235 52.0161 42.5 48.6675 42.5C45.3212 42.5 42.5977 45.2235 42.5977 48.571C42.5977 49.8146 42.9761 50.9703 43.6198 51.934L39.8698 55.5843L36.1213 51.9354C36.7657 50.9714 37.1441 49.8151 37.1441 48.571C37.1441 45.2235 34.4206 42.5 31.072 42.5C27.7235 42.5 25 45.2235 25 48.571C25 51.9195 27.7235 54.643 31.072 54.643C32.3745 54.643 33.5753 54.2224 34.5652 53.5219L38.2769 57.1349L34.5646 60.7484ZM34.9219 65.6988C34.9219 67.8212 33.1944 69.5475 31.072 69.5475C28.9497 69.5475 27.2222 67.8212 27.2222 65.6988C27.2222 63.5764 28.9497 61.85 31.072 61.85C31.7466 61.85 32.3718 62.0397 32.9239 62.3456L30.2973 64.9023C29.8568 65.3309 29.8481 66.0341 30.2756 66.4735C30.4926 66.697 30.7834 66.8099 31.072 66.8099C31.352 66.8099 31.6319 66.7057 31.8468 66.4952L34.4748 63.937C34.751 64.4674 34.9219 65.0606 34.9219 65.6988ZM48.6675 61.85C50.7899 61.85 52.5174 63.5764 52.5174 65.6988C52.5174 67.8212 50.7899 69.5475 48.6675 69.5475C46.5451 69.5475 44.8199 67.8212 44.8199 65.6988C44.8199 65.061 44.9905 64.4682 45.266 63.9381L47.8928 66.4952C48.1076 66.7057 48.3876 66.8099 48.6675 66.8099C48.9562 66.8099 49.247 66.697 49.464 66.4735C49.8915 66.0341 49.8828 65.3309 49.4423 64.9023L46.816 62.3459C47.3678 62.0398 47.9929 61.85 48.6675 61.85ZM44.8199 48.571C44.8199 46.4486 46.5451 44.7222 48.6675 44.7222C50.7899 44.7222 52.5174 46.4486 52.5174 48.571C52.5174 50.6934 50.7899 52.4208 48.6675 52.4208C47.9926 52.4208 47.3673 52.2309 46.8155 51.9244L49.4423 49.3674C49.8828 48.9388 49.8915 48.2357 49.464 47.7962C49.0365 47.3568 48.329 47.3481 47.8928 47.7745L45.2658 50.3316C44.9904 49.8014 44.8199 49.2086 44.8199 48.571ZM31.072 52.4208C28.9497 52.4208 27.2222 50.6934 27.2222 48.571C27.2222 46.4486 28.9497 44.7222 31.072 44.7222C33.1944 44.7222 34.9219 46.4486 34.9219 48.571C34.9219 49.209 34.7508 49.8022 34.4748 50.3327L31.8468 47.7745C31.4106 47.3481 30.7053 47.3568 30.2756 47.7962C29.8481 48.2357 29.8568 48.9388 30.2973 49.3674L32.9243 51.9245C32.3721 52.2309 31.7468 52.4208 31.072 52.4208Z" fill="white"/>
<path d="M17.002 28.5C3.00148 19.5 25 14 12.002 1" stroke="white" stroke-width="2" stroke-linecap="round" stroke-linejoin="round"/>
<path d="M70.8208 36.4709C78.5765 25.126 86.0724 36.47 101.067 30.6276" stroke="white" stroke-width="2" stroke-linecap="round" stroke-linejoin="round"/>
</svg>
