<svg width="95" height="95" viewBox="0 0 95 95" fill="none" xmlns="http://www.w3.org/2000/svg">
<circle cx="47.5" cy="47.5" r="46" stroke="white" stroke-width="3"/>
<path d="M47.502 10.2695C68.0633 10.2696 84.7314 26.9387 84.7314 47.5C84.7313 68.0612 68.0632 84.7294 47.502 84.7295C26.9406 84.7295 10.2726 68.0613 10.2725 47.5C10.2725 26.9386 26.9405 10.2695 47.502 10.2695ZM38.2666 53.1475C34.8591 51.5278 30.5235 53.1065 28.9238 56.4814C28.1216 58.1751 28.0264 60.0796 28.6582 61.8447C29.2876 63.6099 30.5667 65.0228 32.2617 65.8252C33.2069 66.2752 34.2174 66.502 35.2578 66.502C37.9556 66.5019 40.445 64.9275 41.6035 62.4893C43.2584 58.994 41.7619 54.8023 38.2666 53.1475ZM62.5703 53.1465C59.1628 51.5292 54.8247 53.1068 53.2275 56.4805C52.4254 58.1741 52.3301 60.0787 52.9619 61.8438C53.5913 63.6088 54.8706 65.0219 56.5654 65.8242C57.5106 66.2741 58.5211 66.501 59.5615 66.501C62.2594 66.5009 64.7488 64.9257 65.9072 62.4873C67.5619 58.9921 66.0655 54.8014 62.5703 53.1465ZM35.2676 55.0381C35.9269 55.0381 36.5663 55.1823 37.168 55.4668C39.382 56.5161 40.3328 59.1744 39.2822 61.3896C38.2692 63.5284 35.5308 64.5339 33.3594 63.5059C32.2863 62.9968 31.4738 62.1 31.0752 60.9805C30.6767 59.8623 30.7372 58.6553 31.2461 57.5811C31.9757 56.0366 33.5551 55.0382 35.2676 55.0381ZM59.5713 55.0371C60.2307 55.0371 60.87 55.1813 61.4717 55.4658C63.6857 56.5152 64.6365 59.1734 63.5859 61.3887C62.5729 63.526 59.8344 64.5303 57.6631 63.5049C56.5899 62.9959 55.7776 62.099 55.3789 60.9795C54.9803 59.8612 55.0408 58.6535 55.5498 57.5791C56.2795 56.0348 57.8589 55.0371 59.5713 55.0371ZM38.2666 28.8828C34.8591 27.2631 30.5235 28.8419 28.9238 32.2168C28.1216 33.9105 28.0264 35.815 28.6582 37.5801C29.2876 39.3452 30.5668 40.7582 32.2617 41.5605C33.2069 42.0105 34.2174 42.2373 35.2578 42.2373C37.9556 42.2373 40.445 40.6627 41.6035 38.2246C43.2584 34.7293 41.7619 30.5377 38.2666 28.8828ZM62.5703 28.8818C59.1629 27.2646 54.8248 28.8413 53.2275 32.2148C52.4252 33.9085 52.3302 35.813 52.9619 37.5781C53.5913 39.3433 54.8704 40.7562 56.5654 41.5586C57.5107 42.0086 58.521 42.2363 59.5615 42.2363C62.2594 42.2363 64.7488 40.661 65.9072 38.2227C67.562 34.7274 66.0655 30.5368 62.5703 28.8818ZM35.2676 30.7734C35.9269 30.7734 36.5663 30.9177 37.168 31.2021C39.382 32.2515 40.3328 34.9097 39.2822 37.125C38.2692 39.2637 35.5307 40.2692 33.3594 39.2412C32.2863 38.7322 31.4739 37.8353 31.0752 36.7158C30.6766 35.5977 30.7372 34.3907 31.2461 33.3164C31.9757 31.7719 33.5551 30.7735 35.2676 30.7734ZM59.5713 30.7725C60.2307 30.7725 60.87 30.9166 61.4717 31.2012C63.6856 32.2504 64.6362 34.9079 63.5859 37.123C62.573 39.2606 59.8345 40.2648 57.6631 39.2393C56.5901 38.7302 55.7776 37.8343 55.3789 36.7148C54.9802 35.5965 55.0408 34.3889 55.5498 33.3145C56.2795 31.7701 57.8589 30.7725 59.5713 30.7725Z" fill="white"/>
</svg>
