<svg width="79" height="79" viewBox="0 0 79 79" fill="none" xmlns="http://www.w3.org/2000/svg">
<circle cx="39.5" cy="39.5" r="38.2526" stroke="white" stroke-width="2.49474"/>
<path d="M39.502 8.54053C56.6003 8.54058 70.4609 22.4011 70.4609 39.4995C70.4609 56.5979 56.6003 70.4594 39.502 70.4595C22.4035 70.4595 8.54199 56.5979 8.54199 39.4995C8.542 22.4011 22.4035 8.54053 39.502 8.54053ZM31.8223 44.1968C28.9887 42.8498 25.3831 44.1618 24.0527 46.9683C23.3855 48.3767 23.3067 49.9604 23.832 51.4282C24.3554 52.8961 25.4186 54.0715 26.8281 54.7388C27.6142 55.113 28.455 55.3013 29.3203 55.3013C31.5638 55.3011 33.6344 53.992 34.5977 51.9644C35.9737 49.0579 34.7286 45.573 31.8223 44.1968ZM52.0322 44.1958C49.1987 42.851 45.592 44.162 44.2637 46.9673C43.5965 48.3757 43.5167 49.9594 44.042 51.4272C44.5653 52.8952 45.6295 54.0706 47.0391 54.7378C47.825 55.1119 48.6651 55.3003 49.5303 55.3003C51.7738 55.3003 53.8443 53.9911 54.8076 51.9634C56.1838 49.0568 54.9388 45.572 52.0322 44.1958ZM29.3281 45.7681C29.8765 45.7681 30.4088 45.8888 30.9092 46.1255C32.75 46.9982 33.5406 49.2083 32.667 51.0503C31.8246 52.8289 29.5469 53.6649 27.7412 52.8101C26.849 52.3868 26.1733 51.6413 25.8418 50.7104C25.5103 49.7807 25.5604 48.7766 25.9834 47.8833C26.5901 46.5989 27.9041 45.7682 29.3281 45.7681ZM49.5391 45.7671C50.0873 45.7671 50.6188 45.8879 51.1191 46.1245C52.9602 46.9972 53.7506 49.2072 52.877 51.0493C52.0345 52.8266 49.7577 53.6616 47.9521 52.8091C47.0599 52.3859 46.3843 51.6403 46.0527 50.7095C45.7212 49.7795 45.7711 48.7748 46.1943 47.8813C46.8012 46.5971 48.1151 45.7671 49.5391 45.7671ZM31.8223 24.0181C28.9886 22.6711 25.383 23.984 24.0527 26.7905C23.3856 28.199 23.3066 29.7827 23.832 31.2505C24.3554 32.7183 25.4188 33.8928 26.8281 34.5601C27.6142 34.9343 28.455 35.1235 29.3203 35.1235C31.5637 35.1234 33.6344 33.8142 34.5977 31.7866C35.9738 28.88 34.7289 25.3942 31.8223 24.0181ZM52.0322 24.0171C49.1986 22.6724 45.5918 23.9841 44.2637 26.7896C43.5965 28.198 43.5166 29.7816 44.042 31.2495C44.5653 32.7174 45.6295 33.8919 47.0391 34.5591C47.8251 34.9333 48.6651 35.1225 49.5303 35.1226C51.7737 35.1226 53.8442 33.8132 54.8076 31.7856C56.1838 28.879 54.9388 25.3933 52.0322 24.0171ZM29.3281 25.5903C29.8765 25.5903 30.4088 25.7101 30.9092 25.9468C32.75 26.8194 33.5402 29.0296 32.667 30.8716C31.8246 32.6502 29.5469 33.4862 27.7412 32.6313C26.849 32.208 26.1733 31.4626 25.8418 30.5317C25.5104 29.6019 25.5602 28.5979 25.9834 27.7046C26.5901 26.4202 27.9041 25.5904 29.3281 25.5903ZM49.5391 25.5894C50.0873 25.5894 50.6189 25.7092 51.1191 25.9458C52.9602 26.8184 53.7504 29.0285 52.877 30.8706C52.0346 32.6481 49.7578 33.4832 47.9521 32.6304C47.0597 32.2071 46.3843 31.4618 46.0527 30.5308C45.7213 29.6009 45.7711 28.597 46.1943 27.7036C46.8011 26.4192 48.115 25.5894 49.5391 25.5894Z" fill="white"/>
</svg>
