<svg width="79" height="98" viewBox="0 0 79 98" fill="none" xmlns="http://www.w3.org/2000/svg">
<path d="M47.6291 37.4884C48.6036 38.4641 49.6085 39.4439 50.6512 40.4226C59.7023 48.9164 70.4498 56.4597 75.5334 56.4597C76.468 56.4597 77.2118 56.2045 77.7178 55.6533C77.9764 55.4401 78.8635 54.5832 78.9862 52.7938C79.1868 49.8574 77.2991 44.3618 67.1671 34.8531C66.9253 34.6249 66.5494 34.6459 66.3302 34.8969C66.111 35.1491 66.1301 35.5376 66.3724 35.7658C76.5895 45.3532 77.9232 50.4483 77.8092 52.6322C77.7317 54.1112 77.0099 54.6697 76.9874 54.6871C76.9475 54.7147 76.911 54.7477 76.8787 54.7844C74.9291 57.0224 64.0058 51.2986 51.4453 39.5098C50.4709 38.5957 49.5365 37.681 48.6222 36.7691C49.1344 36.5173 49.6953 36.3741 50.273 36.3741C51.2313 36.3741 52.1503 36.7422 52.8622 37.41C53.6274 38.1281 54.0779 39.1129 54.13 40.183C54.1323 40.23 54.123 40.2752 54.1237 40.3221C55.8274 41.8595 57.4432 43.2398 58.9725 44.4803C60.6494 40.643 59.8506 35.9516 56.6909 32.9694C56.6876 32.9663 56.684 32.9637 56.6806 32.9606C56.6784 32.9584 56.6775 32.9553 56.6753 32.9532C56.6721 32.9502 56.6676 32.9497 56.6644 32.9468C54.9016 31.3142 52.6339 30.4143 50.273 30.4143C48.169 30.4143 46.1387 31.1423 44.4829 32.4406C35.9086 22.9769 32.8386 16.3943 34.2464 14.7771C35.0191 13.8878 37.8345 14.1148 43.419 17.4114C47.0256 19.5305 48.4576 19.6945 49.8068 18.1458C50.2643 17.6198 50.3586 16.7629 50.0648 15.7949C49.8606 15.1224 49.3789 14.0968 48.2418 13.0297L34.5263 0.15833C34.284 -0.0686527 33.9087 -0.0494372 33.6895 0.202166C33.4703 0.454369 33.4894 0.842882 33.7317 1.07107L47.4472 13.9424C48.1805 14.63 48.7086 15.419 48.9347 16.1642C49.1122 16.7497 49.0556 17.1742 48.9277 17.3208C48.3124 18.0287 47.8248 18.5872 44.0031 16.342C40.1716 14.0794 35.2175 11.8299 33.3673 13.952C30.7473 16.9617 36.9028 25.8606 43.5855 33.2452C43.4376 33.3943 43.2857 33.5386 43.1466 33.6984C42.2311 34.7504 41.5538 35.9748 41.1224 37.3775C40.7118 39.0883 39.2011 44.8662 36.993 47.4014C35.616 49.0262 3.42331 87.0711 0.157461 96.9724C0.0832881 97.0585 0.0266102 97.1593 0.00774165 97.277C-0.0246458 97.4824 0.0459126 97.6913 0.194548 97.8313L0.23214 97.8667C0.331616 97.9604 0.461744 98 0.595342 98C0.663008 98 0.731253 97.9898 0.796606 97.9712C0.842802 97.9583 0.878514 97.9184 0.920517 97.8921C9.88872 93.8202 43.4235 56.3673 44.8539 54.7675C47.0574 52.2365 52.4406 50.094 54.0745 49.4833C55.1529 48.9955 56.1076 48.3138 56.936 47.4737C55.0698 45.9723 53.4963 44.619 52.4318 43.6806C51.0044 44.645 48.9722 44.5721 47.6814 43.3608C46.1014 41.8782 45.9776 39.3363 47.4061 37.6958C47.4737 37.6181 47.5563 37.5599 47.6291 37.4884Z" fill="white"/>
</svg>
