<svg width="95" height="95" viewBox="0 0 95 95" fill="none" xmlns="http://www.w3.org/2000/svg">
<circle cx="47.5" cy="47.5" r="44.4937" stroke="white" stroke-width="6.01266"/>
<path d="M41.5652 52.0075C40.3751 51.1654 38.9313 50.66 37.3653 50.66C33.3386 50.66 30.0635 53.9351 30.0635 57.9605C30.0635 61.9859 33.3386 65.261 37.3653 65.261C41.392 65.261 44.6671 61.9859 44.6671 57.9605C44.6671 56.4645 44.2118 55.0742 43.4367 53.915L47.9449 49.5267L52.4547 53.9167C51.6803 55.0755 51.2252 56.4652 51.2252 57.9605C51.2252 61.9859 54.5003 65.261 58.5244 65.261C62.5511 65.261 65.8263 61.9859 65.8263 57.9605C65.8263 53.9351 62.5511 50.66 58.5244 50.66C56.9591 50.66 55.5155 51.1659 54.3255 52.0085L49.8604 47.6621L54.3247 43.3164C55.5148 44.1593 56.9586 44.6656 58.5244 44.6656C62.5511 44.6656 65.8263 41.3905 65.8263 37.3638C65.8263 33.3384 62.5511 30.0632 58.5244 30.0632C54.5003 30.0632 51.2252 33.3384 51.2252 37.3638C51.2252 38.8593 51.6803 40.2491 52.4544 41.4079L47.9449 45.7975L43.4372 41.4095C44.2121 40.2504 44.6671 38.8599 44.6671 37.3638C44.6671 33.3384 41.392 30.0632 37.3653 30.0632C33.3386 30.0632 30.0635 33.3384 30.0635 37.3638C30.0635 41.3905 33.3386 44.6656 37.3653 44.6656C38.9316 44.6656 40.3755 44.1598 41.5659 43.3174L46.0294 47.6621L41.5652 52.0075ZM41.9948 57.9605C41.9948 60.5127 39.9176 62.5887 37.3653 62.5887C34.8131 62.5887 32.7358 60.5127 32.7358 57.9605C32.7358 55.4083 34.8131 53.3323 37.3653 53.3323C38.1764 53.3323 38.9283 53.5603 39.5922 53.9283L36.4337 57.0028C35.9039 57.5182 35.8935 58.3637 36.4076 58.8922C36.6685 59.1609 37.0182 59.2966 37.3653 59.2966C37.702 59.2966 38.0386 59.1714 38.297 58.9182L41.4573 55.8419C41.7893 56.4797 41.9948 57.1931 41.9948 57.9605ZM58.5244 53.3323C61.0767 53.3323 63.154 55.4083 63.154 57.9605C63.154 60.5127 61.0767 62.5887 58.5244 62.5887C55.9722 62.5887 53.8975 60.5127 53.8975 57.9605C53.8975 57.1936 54.1027 56.4807 54.434 55.8433L57.5928 58.9182C57.8511 59.1714 58.1878 59.2966 58.5244 59.2966C58.8715 59.2966 59.2212 59.1609 59.4822 58.8922C59.9963 58.3637 59.9858 57.5182 59.4561 57.0028L56.2979 53.9286C56.9614 53.5605 57.7132 53.3323 58.5244 53.3323ZM53.8975 37.3638C53.8975 34.8115 55.9722 32.7355 58.5244 32.7355C61.0767 32.7355 63.154 34.8115 63.154 37.3638C63.154 39.916 61.0767 41.9933 58.5244 41.9933C57.7128 41.9933 56.9609 41.7649 56.2973 41.3963L59.4561 38.3215C59.9858 37.8061 59.9963 36.9606 59.4822 36.4321C58.9681 35.9037 58.1173 35.8932 57.5928 36.406L54.4338 39.481C54.1025 38.8434 53.8975 38.1305 53.8975 37.3638ZM37.3653 41.9933C34.8131 41.9933 32.7358 39.916 32.7358 37.3638C32.7358 34.8115 34.8131 32.7355 37.3653 32.7355C39.9176 32.7355 41.9948 34.8115 41.9948 37.3638C41.9948 38.131 41.7892 38.8444 41.4573 39.4823L38.297 36.406C37.7724 35.8932 36.9243 35.9037 36.4076 36.4321C35.8935 36.9606 35.9039 37.8061 36.4337 38.3215L39.5927 41.3965C38.9287 41.7649 38.1767 41.9933 37.3653 41.9933Z" fill="white"/>
</svg>
