<svg width="205" height="47" viewBox="0 0 205 47" fill="none" xmlns="http://www.w3.org/2000/svg">
<g clip-path="url(#clip0_366_11876)">
<path d="M24.1292 8.07617H33.4259V9.80094H29.7704V19.4967H27.7603V9.80094H24.1211V8.07617H24.1292ZM33.0287 11.2275H34.7471V12.8233H34.7795C34.8362 12.5976 34.9416 12.38 35.0956 12.1705C35.2496 11.9609 35.436 11.7594 35.6548 11.5902C35.8737 11.4129 36.1168 11.2759 36.3843 11.163C36.6518 11.0582 36.9274 11.0018 37.2029 11.0018C37.4137 11.0018 37.5677 11.0099 37.6487 11.018C37.7298 11.026 37.8108 11.0421 37.9 11.0502V12.8072C37.7703 12.783 37.6406 12.7669 37.5028 12.7508C37.365 12.7347 37.2354 12.7266 37.1057 12.7266C36.7977 12.7266 36.5059 12.7911 36.2303 12.912C35.9547 13.0329 35.7197 13.2182 35.5171 13.452C35.3144 13.6938 35.1523 13.9839 35.0307 14.3385C34.9092 14.6932 34.8524 15.0961 34.8524 15.5555V19.4887H33.0206V11.2275L33.0287 11.2275ZM46.3213 19.4967H44.522V18.3442H44.4896C44.2626 18.7633 43.9303 19.0937 43.4845 19.3436C43.0387 19.5934 42.5848 19.7224 42.1228 19.7224C41.0286 19.7224 40.2343 19.4564 39.748 18.9164C39.2617 18.3764 39.0185 17.5624 39.0185 16.4743V11.2275H40.8503V16.297C40.8503 17.0224 40.9881 17.5382 41.2718 17.8364C41.5474 18.1346 41.9445 18.2878 42.447 18.2878C42.8361 18.2878 43.1522 18.2314 43.4116 18.1105C43.6709 17.9896 43.8817 17.8364 44.0357 17.6349C44.1978 17.4415 44.3112 17.1997 44.3842 16.9257C44.4571 16.6517 44.4896 16.3535 44.4896 16.0311V11.2356H46.3213V19.4967ZM49.4419 16.8451C49.4986 17.377 49.7012 17.7478 50.0497 17.9654C50.4064 18.1749 50.8278 18.2878 51.3223 18.2878C51.4925 18.2878 51.687 18.2717 51.9058 18.2475C52.1247 18.2233 52.3354 18.1669 52.5218 18.0943C52.7164 18.0218 52.8704 17.909 53 17.7639C53.1216 17.6188 53.1784 17.4334 53.1703 17.1997C53.1622 16.966 53.073 16.7726 52.9109 16.6275C52.7488 16.4743 52.5462 16.3615 52.2949 16.2648C52.0436 16.1761 51.7599 16.0955 51.4357 16.0311C51.1115 15.9666 50.7873 15.8941 50.455 15.8215C50.1146 15.749 49.7823 15.6523 49.4662 15.5475C49.1501 15.4427 48.8664 15.2976 48.6151 15.1123C48.3639 14.935 48.1612 14.7012 48.0153 14.4191C47.8613 14.137 47.7884 13.7905 47.7884 13.3714C47.7884 12.92 47.9019 12.5493 48.1207 12.243C48.3395 11.9368 48.6232 11.695 48.9555 11.5096C49.296 11.3242 49.6688 11.1953 50.0822 11.1147C50.4955 11.0421 50.8927 11.0018 51.2655 11.0018C51.6951 11.0018 52.1085 11.0502 52.4975 11.1388C52.8866 11.2275 53.2432 11.3726 53.5593 11.5821C53.8754 11.7836 54.1348 12.0496 54.3455 12.372C54.5563 12.6944 54.6859 13.0893 54.7427 13.5487H52.8298C52.7407 13.1135 52.5462 12.8153 52.2301 12.6702C51.9139 12.517 51.5492 12.4445 51.144 12.4445C51.0143 12.4445 50.8603 12.4526 50.6819 12.4768C50.5036 12.5009 50.3415 12.5412 50.1794 12.5976C50.0254 12.6541 49.8957 12.7427 49.7823 12.8556C49.6769 12.9684 49.6202 13.1135 49.6202 13.2988C49.6202 13.5245 49.7012 13.7018 49.8552 13.8388C50.0092 13.9759 50.2118 14.0887 50.4631 14.1854C50.7144 14.2741 50.9981 14.3547 51.3223 14.4191C51.6465 14.4836 51.9788 14.5561 52.3192 14.6287C52.6515 14.7012 52.9757 14.7979 53.2999 14.9027C53.6242 15.0075 53.9078 15.1526 54.1591 15.3379C54.4104 15.5233 54.613 15.749 54.767 16.023C54.921 16.297 55.002 16.6436 55.002 17.0466C55.002 17.5382 54.8886 17.9493 54.6616 18.2958C54.4347 18.6343 54.1429 18.9164 53.7863 19.126C53.4296 19.3355 53.0244 19.4967 52.5867 19.5934C52.149 19.6902 51.7113 19.7385 51.2817 19.7385C50.7549 19.7385 50.2686 19.6821 49.8228 19.5612C49.377 19.4403 48.988 19.263 48.6637 19.0293C48.3395 18.7875 48.0802 18.4893 47.8937 18.1346C47.7073 17.78 47.6101 17.3529 47.5939 16.8612H49.4419V16.8451ZM55.4884 11.2275H56.8744V8.74512H58.7061V11.2275H60.3596V12.5896H58.7061V17.0063C58.7061 17.1997 58.7142 17.3609 58.7304 17.506C58.7467 17.643 58.7872 17.7639 58.8439 17.8606C58.9007 17.9573 58.9898 18.0299 59.1114 18.0782C59.233 18.1266 59.387 18.1508 59.5977 18.1508C59.7274 18.1508 59.8571 18.1508 59.9868 18.1427C60.1164 18.1346 60.2461 18.1185 60.3758 18.0863V19.4967C60.1732 19.5209 59.9706 19.537 59.7841 19.5612C59.5896 19.5854 59.3951 19.5934 59.1925 19.5934C58.7061 19.5934 58.3171 19.5451 58.0253 19.4564C57.7335 19.3678 57.4985 19.2308 57.3364 19.0534C57.1661 18.8761 57.0608 18.6585 56.9959 18.3925C56.9392 18.1266 56.8987 17.8203 56.8906 17.4818V12.6057H55.5046V11.2275H55.4884ZM61.6564 11.2275H63.391V12.3478H63.4234C63.6827 11.8642 64.0394 11.5257 64.5014 11.3162C64.9634 11.1066 65.4578 11.0018 66.0008 11.0018C66.6574 11.0018 67.2247 11.1147 67.7111 11.3484C68.1974 11.5741 68.6026 11.8884 68.9268 12.2914C69.251 12.6944 69.4861 13.1618 69.6482 13.6938C69.8103 14.2257 69.8914 14.7979 69.8914 15.4024C69.8914 15.9585 69.8184 16.4985 69.6725 17.0143C69.5266 17.5382 69.3078 17.9976 69.016 18.4006C68.7242 18.8036 68.3514 19.1179 67.8975 19.3597C67.4436 19.6015 66.9167 19.7224 66.3007 19.7224C66.0333 19.7224 65.7658 19.6982 65.4983 19.6499C65.2308 19.6015 64.9715 19.5209 64.7283 19.4161C64.4852 19.3113 64.2501 19.1743 64.0475 19.0051C63.8367 18.8358 63.6665 18.6424 63.5206 18.4248H63.4882V22.5513H61.6564V11.2275ZM68.0596 15.3702C68.0596 14.9994 68.0109 14.6367 67.9137 14.2821C67.8164 13.9275 67.6705 13.6212 67.476 13.3472C67.2815 13.0732 67.0383 12.8556 66.7546 12.6944C66.4628 12.5332 66.1305 12.4445 65.7577 12.4445C64.9877 12.4445 64.4041 12.7105 64.0151 13.2424C63.626 13.7744 63.4315 14.4836 63.4315 15.3702C63.4315 15.7893 63.4801 16.1761 63.5855 16.5308C63.6909 16.8854 63.8367 17.1917 64.0475 17.4496C64.2501 17.7075 64.4933 17.909 64.777 18.054C65.0606 18.2072 65.393 18.2797 65.7658 18.2797C66.1873 18.2797 66.5358 18.1911 66.8276 18.0218C67.1194 17.8526 67.3544 17.6269 67.5408 17.3609C67.7273 17.0869 67.8651 16.7806 67.9461 16.434C68.0191 16.0875 68.0596 15.7329 68.0596 15.3702ZM71.2936 8.07617H73.1254V9.80094H71.2936V8.07617ZM71.2936 11.2275H73.1254V19.4967H71.2936V11.2275ZM74.7626 8.07617H76.5944V19.4967H74.7626V8.07617ZM82.2113 19.7224C81.5467 19.7224 80.955 19.6096 80.4363 19.3919C79.9175 19.1743 79.4799 18.8681 79.1151 18.4893C78.7585 18.1024 78.4829 17.643 78.2965 17.1111C78.1101 16.5791 78.0128 15.9908 78.0128 15.3541C78.0128 14.7254 78.1101 14.1451 78.2965 13.6132C78.4829 13.0812 78.7585 12.6218 79.1151 12.235C79.4717 11.8481 79.9175 11.5499 80.4363 11.3323C80.955 11.1147 81.5467 11.0018 82.2113 11.0018C82.8759 11.0018 83.4676 11.1147 83.9864 11.3323C84.5051 11.5499 84.9428 11.8562 85.3075 12.235C85.6642 12.6218 85.9397 13.0812 86.1261 13.6132C86.3126 14.1451 86.4098 14.7254 86.4098 15.3541C86.4098 15.9908 86.3126 16.5791 86.1261 17.1111C85.9397 17.643 85.6642 18.1024 85.3075 18.4893C84.9509 18.8761 84.5051 19.1743 83.9864 19.3919C83.4676 19.6096 82.8759 19.7224 82.2113 19.7224ZM82.2113 18.2797C82.6166 18.2797 82.9732 18.1911 83.2731 18.0218C83.573 17.8526 83.8162 17.6269 84.0107 17.3529C84.2052 17.0788 84.343 16.7645 84.4403 16.4179C84.5294 16.0714 84.5781 15.7167 84.5781 15.3541C84.5781 14.9994 84.5294 14.6529 84.4403 14.2982C84.3511 13.9436 84.2052 13.6373 84.0107 13.3633C83.8162 13.0893 83.573 12.8717 83.2731 12.7024C82.9732 12.5332 82.6166 12.4445 82.2113 12.4445C81.8061 12.4445 81.4494 12.5332 81.1495 12.7024C80.8496 12.8717 80.6065 13.0973 80.412 13.3633C80.2174 13.6373 80.0796 13.9436 79.9824 14.2982C79.8932 14.6529 79.8446 14.9994 79.8446 15.3541C79.8446 15.7167 79.8932 16.0714 79.9824 16.4179C80.0715 16.7645 80.2174 17.0788 80.412 17.3529C80.6065 17.6269 80.8496 17.8526 81.1495 18.0218C81.4494 18.1991 81.8061 18.2797 82.2113 18.2797ZM86.9448 11.2275H88.3308V8.74512H90.1626V11.2275H91.816V12.5896H90.1626V17.0063C90.1626 17.1997 90.1707 17.3609 90.1869 17.506C90.2031 17.643 90.2436 17.7639 90.3003 17.8606C90.3571 17.9573 90.4462 18.0299 90.5678 18.0782C90.6894 18.1266 90.8434 18.1508 91.0541 18.1508C91.1838 18.1508 91.3135 18.1508 91.4432 18.1427C91.5729 18.1346 91.7026 18.1185 91.8322 18.0863V19.4967C91.6296 19.5209 91.427 19.537 91.2406 19.5612C91.046 19.5854 90.8515 19.5934 90.6489 19.5934C90.1626 19.5934 89.7735 19.5451 89.4817 19.4564C89.1899 19.3678 88.9549 19.2308 88.7928 19.0534C88.6226 18.8761 88.5172 18.6585 88.4523 18.3925C88.3956 18.1266 88.3551 17.8203 88.347 17.4818V12.6057H86.961V11.2275L86.9448 11.2275Z" fill="#482A18"/>
<path d="M21.9895 8.07672H13.5925L10.9988 0.129883L8.39702 8.07672L0 8.06866L6.80029 12.9851L4.19851 20.9238L10.9988 16.0155L17.791 20.9238L15.1973 12.9851L21.9895 8.07672Z" fill="#00B67A"/>
<path d="M15.7801 14.7817L15.1966 12.9844L10.998 16.0148L15.7801 14.7817Z" fill="#005128"/>
</g>
<rect x="99.2168" y="2.1887" width="18.2384" height="18.2384" fill="#00B67A"/>
<path d="M114.914 9.95759H109.916L108.372 5.22733L106.823 9.95759L101.825 9.95279L105.873 12.8792L104.324 17.6047L108.372 14.6831L112.415 17.6047L110.871 12.8792L114.914 9.95759Z" fill="white"/>
<path d="M111.216 13.9495L110.868 12.8797L108.369 14.6835L111.216 13.9495Z" fill="#00B67A"/>
<rect x="121.103" y="2.18856" width="18.2384" height="18.2384" fill="#00B67A"/>
<path d="M136.797 9.95742H131.799L130.255 5.22716L128.706 9.95742L123.708 9.95262L127.756 12.879L126.207 17.6045L130.255 14.6829L134.298 17.6045L132.754 12.879L136.797 9.95742Z" fill="white"/>
<path d="M133.1 13.9495L132.753 12.8796L130.254 14.6835L133.1 13.9495Z" fill="#00B67A"/>
<rect x="142.989" y="2.18856" width="18.2384" height="18.2384" fill="#00B67A"/>
<path d="M158.685 9.95754H153.686L152.143 5.22728L150.594 9.95754L145.596 9.95274L149.643 12.8792L148.095 17.6046L152.143 14.683L156.186 17.6046L154.642 12.8792L158.685 9.95754Z" fill="white"/>
<path d="M154.988 13.9495L154.641 12.8796L152.142 14.6835L154.988 13.9495Z" fill="#00B67A"/>
<rect x="164.875" y="2.18856" width="18.2384" height="18.2384" fill="#00B67A"/>
<path d="M180.57 9.95742H175.572L174.028 5.22716L172.48 9.95742L167.481 9.95262L171.529 12.879L169.981 17.6045L174.028 14.6829L178.071 17.6045L176.527 12.879L180.57 9.95742Z" fill="white"/>
<path d="M176.875 13.9495L176.527 12.8796L174.028 14.6835L176.875 13.9495Z" fill="#00B67A"/>
<rect x="186.762" y="2.18864" width="18.2384" height="18.2384" fill="#DCDCE6"/>
<rect x="186.762" y="2.18864" width="9.11922" height="18.2384" fill="#00B67A"/>
<path d="M202.454 9.95742H197.456L195.912 5.22716L194.363 9.95742L189.365 9.95262L193.413 12.879L191.864 17.6045L195.912 14.6829L199.955 17.6045L198.411 12.879L202.454 9.95742Z" fill="white"/>
<path d="M198.76 13.9495L198.412 12.8796L195.913 14.6835L198.76 13.9495Z" fill="#00B67A"/>
<path d="M28.7232 37.4644C29.737 37.7507 30.3692 38.4782 30.3692 39.5517C30.3692 41.0903 28.9737 42.0087 27.3873 42.0087C25.8249 42.0087 24.7276 41.305 24.5487 39.5278L24.5367 39.4086H25.5625L25.5744 39.5278C25.6937 40.6848 26.4809 41.1977 27.4828 41.1977C28.4966 41.1977 29.2241 40.6132 29.2241 39.6113C29.2241 38.6452 28.6039 38.0966 27.2681 38.0966H27.0653V37.2617H27.2681C28.2461 37.2617 29.0333 36.6892 29.0333 35.6515C29.0333 34.8285 28.4489 34.256 27.5782 34.256C26.7075 34.256 26.0038 34.7808 25.8964 35.8662L25.8845 35.9854H24.8588L24.8707 35.8662C25.0257 34.3753 26.0396 33.4449 27.7094 33.4449C29.2241 33.4449 30.1783 34.2918 30.1783 35.5322C30.1783 36.4745 29.582 37.214 28.7232 37.4644ZM33.1849 40.7683L32.1115 43.273H31.1454L32.0757 40.649H33.1849V40.7683ZM41.1491 33.6119V34.089L37.0461 41.8417H35.9488L39.8967 34.4468H35.3286V33.6119H41.1491ZM48.7835 39.7664H47.7458V41.8417H46.7201V39.7664H42.6409V39.2535L46.7201 33.6119H47.7458V38.9315H48.7835V39.7664ZM46.7201 38.9315V34.9836C46.5292 35.3056 46.3145 35.6515 46.0402 36.0332L43.941 38.9315H46.7201ZM56.2986 39.7664H55.2609V41.8417H54.2352V39.7664H50.156V39.2535L54.2352 33.6119H55.2609V38.9315H56.2986V39.7664ZM54.2352 38.9315V34.9836C54.0443 35.3056 53.8296 35.6515 53.5553 36.0332L51.4561 38.9315H54.2352ZM67.1154 41.0068V41.8417H61.6408V33.6119H66.9961V34.4468H62.6665V37.3094H66.6383V38.1443H62.6665V41.0068H67.1154ZM71.4082 38.6214L73.6505 41.8417H72.4578L70.7999 39.3012L69.154 41.8417H67.9732L70.2393 38.6452L68.0566 35.5203H69.2732L70.8596 37.9654L72.4459 35.5203H73.6267L71.4082 38.6214ZM77.583 35.3533C79.0978 35.3533 80.0639 36.2598 80.2547 37.6433H79.1812C78.9546 36.6295 78.406 36.1405 77.5591 36.1405C76.5692 36.1405 75.7343 36.9158 75.7343 38.6214C75.7343 40.4582 76.5453 41.2215 77.4876 41.2215C78.3225 41.2215 78.9069 40.7444 79.1216 39.826H80.1951C79.885 41.2931 78.8354 42.0087 77.4279 42.0087C75.8297 42.0087 74.6131 41.0068 74.6131 38.6929C74.6131 36.558 75.9967 35.3533 77.583 35.3533ZM87.2357 38.5021C87.2357 38.5975 87.2357 38.7645 87.2118 38.9911H82.6318C82.7272 40.6609 83.5144 41.2215 84.4447 41.2215C85.2677 41.2215 85.9356 40.7086 86.0788 39.8022H87.1522C86.9017 41.3289 85.6971 42.0087 84.397 42.0087C82.751 42.0087 81.5225 40.9353 81.5225 38.7049C81.5225 36.6534 82.7988 35.3533 84.5282 35.3533C86.2696 35.3533 87.2357 36.6534 87.2357 38.5021ZM84.5044 36.1405C83.5025 36.1405 82.763 36.8561 82.6437 38.2039H86.198C86.1026 36.8919 85.542 36.1405 84.5044 36.1405ZM90.1678 33.0752V40.0288C90.1678 40.2196 90.1678 40.4224 90.1797 40.6252C90.2035 41.0307 90.3944 41.1619 90.955 41.1022V41.8417C90.7283 41.8775 90.4659 41.8894 90.2274 41.8894C89.631 41.8894 89.1897 41.6986 89.1539 40.8995C89.142 40.6848 89.142 40.4105 89.142 40.0646V33.0752H90.1678ZM93.711 33.0752V40.0288C93.711 40.2196 93.711 40.4224 93.7229 40.6252C93.7468 41.0307 93.9376 41.1619 94.4982 41.1022V41.8417C94.2716 41.8775 94.0092 41.8894 93.7706 41.8894C93.1743 41.8894 92.733 41.6986 92.6972 40.8995C92.6853 40.6848 92.6853 40.4105 92.6853 40.0646V33.0752H93.711ZM101.465 38.5021C101.465 38.5975 101.465 38.7645 101.441 38.9911H96.8606C96.9561 40.6609 97.7433 41.2215 98.6736 41.2215C99.4966 41.2215 100.164 40.7086 100.308 39.8022H101.381C101.131 41.3289 99.9259 42.0087 98.6259 42.0087C96.9799 42.0087 95.7514 40.9353 95.7514 38.7049C95.7514 36.6534 97.0276 35.3533 98.7571 35.3533C100.498 35.3533 101.465 36.6534 101.465 38.5021ZM98.7332 36.1405C97.7313 36.1405 96.9918 36.8561 96.8726 38.2039H100.427C100.331 36.8919 99.7709 36.1405 98.7332 36.1405ZM108.738 37.202C108.762 37.5241 108.762 37.7745 108.762 38.2874V41.8417H107.736V38.359C107.736 38.0369 107.736 37.7745 107.712 37.4525C107.653 36.713 107.247 36.1644 106.269 36.1644C105.279 36.1644 104.444 36.9038 104.444 39.0627V41.8417H103.419V35.5203H104.444V36.6057L104.838 35.8781C105.375 35.4606 105.84 35.3533 106.484 35.3533C107.867 35.3533 108.643 36.0928 108.738 37.202ZM112.314 36.3552V39.993C112.314 40.2077 112.314 40.315 112.326 40.482C112.373 41.0903 112.624 41.2215 113.423 41.1261V41.8775C113.125 41.9252 112.838 41.9372 112.552 41.9372C111.765 41.9372 111.359 41.6151 111.3 40.8279C111.288 40.6609 111.288 40.3985 111.288 40.0407V36.3552H110.441V35.568H111.288V34.1009H112.314V35.568H113.494V36.3552H112.314ZM121.072 35.3772C121.239 35.3772 121.382 35.401 121.501 35.4606V36.2359C120.428 36.1644 119.617 36.7965 119.617 38.2397V41.8417H118.591V35.5203H119.617V36.5102L120.189 35.6634C120.452 35.4845 120.774 35.3772 121.072 35.3772ZM128.173 38.5021C128.173 38.5975 128.173 38.7645 128.149 38.9911H123.569C123.664 40.6609 124.451 41.2215 125.382 41.2215C126.205 41.2215 126.873 40.7086 127.016 39.8022H128.089C127.839 41.3289 126.634 42.0087 125.334 42.0087C123.688 42.0087 122.46 40.9353 122.46 38.7049C122.46 36.6534 123.736 35.3533 125.465 35.3533C127.207 35.3533 128.173 36.6534 128.173 38.5021ZM125.441 36.1405C124.44 36.1405 123.7 36.8561 123.581 38.2039H127.135C127.04 36.8919 126.479 36.1405 125.441 36.1405ZM135.303 35.5203L132.906 41.8417H131.654L129.256 35.5203H130.389L132.321 41.0903L134.218 35.5203H135.303ZM137.363 33.4449C137.733 33.4449 138.019 33.7312 138.019 34.1009C138.019 34.4707 137.733 34.7569 137.363 34.7569C136.993 34.7569 136.707 34.4707 136.707 34.1009C136.707 33.7312 136.993 33.4449 137.363 33.4449ZM137.876 41.8417H136.85V35.5203H137.876V41.8417ZM145.477 38.5021C145.477 38.5975 145.477 38.7645 145.453 38.9911H140.873C140.968 40.6609 141.755 41.2215 142.686 41.2215C143.509 41.2215 144.177 40.7086 144.32 39.8022H145.393C145.143 41.3289 143.938 42.0087 142.638 42.0087C140.992 42.0087 139.764 40.9353 139.764 38.7049C139.764 36.6534 141.04 35.3533 142.769 35.3533C144.511 35.3533 145.477 36.6534 145.477 38.5021ZM142.745 36.1405C141.743 36.1405 141.004 36.8561 140.885 38.2039H144.439C144.344 36.8919 143.783 36.1405 142.745 36.1405ZM155.839 35.5203L153.824 41.8417H152.607L151.2 36.5222L149.792 41.8417H148.576L146.56 35.5203H147.741L149.208 40.8637L150.591 35.5203H151.868L153.275 40.8279L154.742 35.5203H155.839ZM159.229 35.3533C160.648 35.3533 161.423 36.1644 161.554 37.3213H160.481C160.338 36.5818 159.885 36.1405 159.145 36.1405C158.429 36.1405 158.096 36.5341 158.096 37.0828C158.096 37.7149 158.62 37.9654 159.479 38.192C160.934 38.5737 161.626 39.1462 161.626 40.2196C161.626 41.4124 160.612 42.0087 159.276 42.0087C157.976 42.0087 156.986 41.4124 156.795 39.9811H157.869C158.036 40.8995 158.62 41.2215 159.348 41.2215C160.028 41.2215 160.576 40.9114 160.576 40.3031C160.576 39.6948 160.147 39.3728 159.085 39.0865C157.952 38.7764 157.046 38.3113 157.046 37.202C157.046 36.0451 157.929 35.3533 159.229 35.3533ZM169.245 35.3533C171.392 35.3533 172.382 36.8919 172.382 38.681C172.382 40.4582 171.392 42.0087 169.245 42.0087C167.098 42.0087 166.108 40.4582 166.108 38.681C166.108 36.8919 167.098 35.3533 169.245 35.3533ZM169.245 41.2215C170.521 41.2215 171.261 40.16 171.261 38.681C171.261 37.1901 170.521 36.1405 169.245 36.1405C167.969 36.1405 167.23 37.1901 167.23 38.681C167.23 40.16 167.969 41.2215 169.245 41.2215ZM179.538 37.202C179.562 37.5241 179.562 37.7745 179.562 38.2874V41.8417H178.536V38.359C178.536 38.0369 178.536 37.7745 178.512 37.4525C178.452 36.713 178.047 36.1644 177.069 36.1644C176.079 36.1644 175.244 36.9038 175.244 39.0627V41.8417H174.218V35.5203H175.244V36.6057L175.637 35.8781C176.174 35.4606 176.639 35.3533 177.283 35.3533C178.667 35.3533 179.442 36.0928 179.538 37.202Z" fill="#482A18"/>
<defs>
<clipPath id="clip0_366_11876">
<rect width="91.9217" height="22.6157" fill="white"/>
</clipPath>
</defs>
</svg>
